<?xml version="1.0" standalone="no"?>
<!DOCTYPE svg PUBLIC "-//W3C//DTD SVG 20010904//EN"
 "http://www.w3.org/TR/2001/REC-SVG-20010904/DTD/svg10.dtd">
<svg version="1.0" xmlns="http://www.w3.org/2000/svg"
 width="981.000000pt" height="981.000000pt" viewBox="0 0 981.000000 981.000000"
 preserveAspectRatio="xMidYMid meet">
<metadata>
Created by potrace 1.11, written by Peter Selinger 2001-2013
</metadata>
<g transform="translate(0.000000,981.000000) scale(0.100000,-0.100000)"
fill="#000000" stroke="none">
<path d="M7195 8440 c-27 -11 -69 -37 -92 -57 -23 -21 -1047 -1372 -2274
-3003 -1227 -1631 -2234 -2966 -2238 -2968 -4 -1 -466 441 -1027 983 -828 802
-1029 991 -1074 1013 -48 24 -67 27 -150 27 -114 0 -168 -22 -242 -97 -107
-110 -121 -304 -31 -428 16 -20 552 -544 1193 -1164 945 -914 1175 -1132 1220
-1154 48 -24 67 -27 150 -27 110 0 159 17 227 81 58 54 4731 6266 4766 6335
40 80 46 157 18 250 -19 61 -31 81 -79 129 -73 72 -142 100 -245 99 -46 0 -90
-7 -122 -19z"/>
<path d="M7170 5481 c-88 -27 -174 -104 -213 -189 -17 -37 -22 -66 -22 -137 0
-71 5 -100 22 -137 30 -66 96 -133 162 -165 l56 -28 1195 0 1195 0 55 26 c65
31 132 96 163 159 18 37 22 62 22 145 0 86 -3 107 -24 150 -32 63 -93 124
-156 156 l-50 24 -1190 2 c-654 1 -1201 -2 -1215 -6z"/>
<path d="M5722 3741 c-98 -34 -177 -120 -208 -229 -43 -148 34 -320 174 -389
l57 -28 1915 0 1915 0 53 28 c117 61 175 152 180 284 7 144 -48 246 -168 312
l-65 36 -1900 2 c-1820 2 -1902 2 -1953 -16z"/>
<path d="M4633 2016 c-60 -19 -126 -60 -159 -98 -84 -100 -104 -246 -50 -366
36 -77 105 -143 182 -172 l55 -20 2457 2 2457 3 50 25 c70 34 139 108 164 175
27 71 28 180 4 249 -24 67 -108 157 -175 187 l-53 24 -2445 2 c-2002 1 -2453
-1 -2487 -11z"/>
</g>
</svg>
